#!OML:ASF F:\VICON\USERDATA\INSTALL\rory3\rory3.ASF
:FULLY-SPECIFIED
:DEGREES
2382
root 1.09338 17.9708 4.51796 12.5237 -28.0703 -3.74991
lowerback 5.48168 -0.0853269 -5.02546
upperback 1.66801 -0.393669 0.0416171
thorax -1.31857 -0.199037 2.88961
lowerneck -17.9181 -8.41404 -15.0201
upperneck 13.5725 -9.69701 11.544
head 8.48505 -4.33933 5.05542
rclavicle -1.92821e-014 7.95139e-015
rhumerus -18.4286 16.7618 -93.9103
rradius 46.0903
rwrist 19.8695
rhand -22.5859 3.98958
rfingers 7.12502
rthumb 3.84298 -25.9555
lclavicle -1.92821e-014 7.95139e-015
lhumerus -26.6785 -10.7389 90.5842
lradius 37.2756
lwrist -5.95559
lhand -9.35678 25.4467
lfingers 7.12502
lthumb 16.603 54.7565
rfemur -19.8497 -7.07126 16.6415
rtibia 36.2227
rfoot -19.3885 -11.6204
rtoes 1.25458
lfemur -26.4878 5.81199 -18.2386
ltibia 24.1689
lfoot -4.06297 7.43209
ltoes -14.5511
2383
root 1.12678 17.9747 4.51712 12.709 -28.2872 -3.9681
lowerback 5.44244 -0.0718577 -5.00396
upperback 1.63328 -0.37341 0.0285471
thorax -1.33456 -0.18782 2.86259
lowerneck -17.9797 -8.39244 -15.1813
upperneck 13.7711 -9.62591 11.519
head 8.55932 -4.31498 5.08438
rclavicle 8.11041e-014 2.54444e-014
rhumerus -18.3492 17.1785 -94.2288
rradius 46.215
rwrist 19.6835
rhand -22.7369 3.97958
rfingers 7.12502
rthumb 3.69722 -25.9681
lclavicle 8.11041e-014 2.54444e-014
lhumerus -26.4545 -10.6025 90.365
lradius 37.1486
lwrist -5.78897
lhand -9.53133 25.3924
lfingers 7.12502
lthumb 16.4349 54.7162
rfemur -19.9964 -7.51335 17.2508
rtibia 36.7141
rfoot -19.5381 -11.6302
rtoes 0.485583
lfemur -26.5791 5.82595 -18.1496
ltibia 24.1283
lfoot -3.98203 7.69497
ltoes -15.3158
2384
root 1.16377 17.9794 4.52124 12.756 -28.3859 -4.05545
lowerback 5.48073 -0.104715 -5.02635
upperback 1.57016 -0.42211 0.025369
thorax -1.41671 -0.208729 2.87558
lowerneck -18.0462 -8.35635 -15.2207
upperneck 14.0089 -9.52634 11.2835
head 8.62524 -4.29027 5.02447
rclavicle -4.07509e-014 3.26007e-014
rhumerus -18.4562 17.622 -94.5222
rradius 46.437
rwrist 19.4769
rhand -22.5843 3.75609
rfingers 7.12502
rthumb 3.84456 -26.189
lclavicle -4.07509e-014 3.26007e-014
lhumerus -26.3144 -10.5227 90.1945
lradius 37.0015
lwrist -5.56816
lhand -9.5122 25.381
lfingers 7.12502
lthumb 16.4533 54.7032
rfemur -20.0056 -8.10938 17.7072
rtibia 37.2742
rfoot -19.6768 -11.6344
rtoes -0.354815
lfemur -26.5298 5.69388 -18.1745
ltibia 24.0129
lfoot -3.87469 7.94636
ltoes -15.6888
2385
root 1.19957 17.983 4.5294 12.6989 -28.5643 -4.01952
lowerback 5.47973 -0.131991 -5.13461
upperback 1.52344 -0.466402 -0.0231038
thorax -1.45994 -0.228632 2.88938
lowerneck -18.0823 -8.30012 -15.3282
upperneck 14.2522 -9.4151 11.1945
head 8.69842 -4.25195 5.02977
rclavicle -8.46823e-014 6.36111e-015
rhumerus -18.6269 18.1072 -94.861
rradius 46.6141
rwrist 19.214
rhand -22.6879 3.77739
rfingers 7.12502
rthumb 3.74448 -26.1695
lclavicle -8.46823e-014 6.36111e-015
lhumerus -26.1676 -10.1241 89.9903
lradius 36.7938
lwrist -5.59623
lhand -9.53271 25.537
lfingers 7.12502
lthumb 16.4336 54.8609
rfemur -19.9418 -8.73437 17.9985
rtibia 37.895
rfoot -19.9827 -11.4733
rtoes -0.197762
lfemur -26.3609 5.50239 -18.27
ltibia 23.8239
lfoot -3.83177 8.28321
ltoes -14.7982
2386
root 1.2348 17.9873 4.53579 12.6159 -28.7743 -3.9734
lowerback 5.45388 -0.123069 -5.25036
upperback 1.52792 -0.460596 -0.087303
thorax -1.44086 -0.226225 2.88742
lowerneck -18.1045 -8.28972 -15.3433
upperneck 14.3943 -9.37141 11.036
head 8.73609 -4.24697 4.98408
rclavicle 9.95911e-014 -2.22639e-014
rhumerus -18.6863 18.4885 -95.1399
rradius 46.7593
rwrist 18.9812
rhand -22.6663 3.78531
rfingers 7.12502
rthumb 3.76532 -26.1612
lclavicle 9.95911e-014 -2.22639e-014
lhumerus -25.9354 -9.77029 89.768
lradius 36.6024
lwrist -5.52323
lhand -9.53313 25.8869
lfingers 7.12502
lthumb 16.4332 55.2108
rfemur -19.8728 -9.2404 18.2816
rtibia 38.5491
rfoot -20.2163 -11.5419
rtoes -0.572133
lfemur -26.1446 5.12775 -18.3179
ltibia 23.5701
lfoot -3.70627 8.80293
ltoes -14.1475
2387
root 1.26789 17.9931 4.54216 12.5283 -28.9829 -3.95218
lowerback 5.32438 -0.0986389 -5.31124
upperback 1.58126 -0.423478 -0.164702
thorax -1.31685 -0.212044 2.83798
lowerneck -18.136 -8.28582 -15.3921
upperneck 14.526 -9.32128 10.8611
head 8.77193 -4.24214 4.93864
rclavicle -2.96189e-014 1.03368e-014
rhumerus -18.6966 18.9065 -95.3557
rradius 46.9137
rwrist 18.6019
rhand -22.4507 3.78435
rfingers 7.12502
rthumb 3.97358 -26.1583
lclavicle -2.96189e-014 1.03368e-014
lhumerus -25.6463 -9.5219 89.505
lradius 36.4099
lwrist -5.37545
lhand -9.55161 26.0563
lfingers 7.12502
lthumb 16.4154 55.3817
rfemur -19.7586 -9.8139 18.5791
rtibia 39.2326
rfoot -20.1021 -11.6989
rtoes -1.26039
lfemur -25.8837 4.71044 -18.3421
ltibia 23.2897
lfoot -3.51629 9.40454
ltoes -13.8147
2388
root 1.29924 17.9984 4.54586 12.5125 -29.2687 -4.02207
lowerback 5.13204 -0.0579044 -5.2783
upperback 1.63567 -0.356032 -0.272531
thorax -1.1603 -0.183568 2.70244
lowerneck -18.1774 -8.24667 -15.3961
upperneck 14.6344 -9.24648 10.7601
head 8.8001 -4.2162 4.91566
rclavicle 4.41302e-014 -1.03368e-014
rhumerus -18.7415 19.2734 -95.6635
rradius 47.0113
rwrist 18.387
rhand -22.472 4.23319
rfingers 7.12502
rthumb 3.95294 -25.7099
lclavicle 4.41302e-014 -1.03368e-014
lhumerus -25.3297 -9.13939 89.136
lradius 36.2418
lwrist -5.23768
lhand -9.32121 26.1854
lfingers 7.12502
lthumb 16.6372 55.4923
rfemur -19.6424 -10.3269 18.9427
rtibia 39.9319
rfoot -19.9211 -11.9286
rtoes -0.918139
lfemur -25.6578 4.38791 -18.2926
ltibia 23.034
lfoot -3.40131 10.0062
ltoes -13.5747
2389
root 1.33168 18.0029 4.54606 12.5797 -29.5679 -4.06733
lowerback 4.94153 -0.0214604 -5.30481
upperback 1.62164 -0.298616 -0.354381
thorax -1.07363 -0.156803 2.62842
lowerneck -18.1843 -8.22809 -15.3528
upperneck 14.6096 -9.2303 10.7628
head 8.78852 -4.20564 4.91191
rclavicle 7.07673e-014 -3.73715e-014
rhumerus -18.8067 19.5631 -95.9702
rradius 47.1264
rwrist 18.0979
rhand -22.4193 4.26932
rfingers 7.12502
rthumb 4.00388 -25.6728
lclavicle 7.07673e-014 -3.73715e-014
lhumerus -25.1151 -8.65246 88.7858
lradius 36.2309
lwrist -4.99034
lhand -8.99889 26.6345
lfingers 7.12502
lthumb 16.9475 55.9151
rfemur -19.654 -10.719 19.3001
rtibia 40.6693
rfoot -19.8295 -12.2392
rtoes -0.525616
lfemur -25.5824 4.2603 -18.3295
ltibia 22.8183
lfoot -3.2738 10.4277
ltoes -13.6707
2390
root 1.36449 18.0062 4.54803 12.6676 -29.8498 -4.10563
lowerback 4.80797 -0.0184665 -5.42825
upperback 1.52087 -0.294518 -0.337036
thorax -1.10237 -0.151932 2.71492
lowerneck -18.2373 -8.18456 -15.3645
upperneck 14.7189 -9.1476 10.6711
head 8.81894 -4.17528 4.89451
rclavicle 1.31198e-014 1.19271e-014
rhumerus -18.9047 19.9508 -96.2475
rradius 47.2016
rwrist 17.7017
rhand -21.962 3.95824
rfingers 7.12502
rthumb 4.44548 -25.9751
lclavicle 1.31198e-014 1.19271e-014
lhumerus -25.0959 -8.01361 88.5652
lradius 36.2082
lwrist -4.88121
lhand -9.1475 26.7609
lfingers 7.12502
lthumb 16.8045 56.0538
rfemur -19.6824 -11.1074 19.6536
rtibia 41.4163
rfoot -19.8073 -12.1756
rtoes -0.267787
lfemur -25.5691 4.38832 -18.457
ltibia 22.6558
lfoot -3.01637 10.5634
ltoes -14.253
2391
root 1.39352 18.011 4.54752 12.7483 -30.4333 -4.18211
lowerback 4.69085 0.122061 -5.69197
upperback 1.41875 -0.11485 -0.294862
thorax -1.15682 -0.0587273 2.89617
lowerneck -18.3706 -8.1517 -15.428
upperneck 14.9559 -9.04873 10.5185
head 8.90418 -4.14466 4.86602
rclavicle 1.23246e-014 1.66979e-014
rhumerus -18.9573 20.1599 -96.4358
rradius 46.9872
rwrist 17.8029
rhand -21.9447 4.59401
rfingers 7.12502
rthumb 4.46216 -25.339
lclavicle 1.23246e-014 1.66979e-014
lhumerus -25.0565 -7.71845 88.4369
lradius 36.0551
lwrist -4.67343
lhand -9.82328 26.8521
lfingers 7.12502
lthumb 16.1538 56.199
rfemur -19.6944 -11.2638 19.9845
rtibia 42.1795
rfoot -19.8103 -11.6962
rtoes 0.374374
lfemur -25.4714 4.47913 -18.4923
ltibia 22.5028
lfoot -2.59689 10.9649
ltoes -14.2225
